inDegrees=no
num_controls=7
num_derivatives=13
num_iterations=159
num_multipliers=7
num_parameters=0
num_slacks=7
num_states=26
objective=0.490029
objective_accelerations=0.027042
objective_balance=0.003298
objective_effort=0.026943
objective_height=0.426005
objective_ligament=0.006740
solver_duration=2221.868624
status=Solve_Succeeded
success=true
DataType=double
version=3
OpenSimVersion=4.5
endheader
time	/jointset/ground_pelvis/pelvis_tilt/value	/jointset/ground_pelvis/pelvis_tx/value	/jointset/ground_pelvis/pelvis_ty/value	/jointset/hip_l/hip_flexion_l/value	/jointset/hip_l/hip_adduction_l/value	/jointset/hip_l/hip_rotation_l/value	/jointset/back/lumbar_extension/value	/jointset/patellofemoral_l/patellar_flexion_l/value	/jointset/knee_l/knee_flexion_l/value	/jointset/knee_l/knee_adduction_l/value	/jointset/knee_l/knee_rotation_l/value	/jointset/ankle_l/ankle_angle_l/value	/jointset/subtalar_l/subtalar_angle_l/value	/jointset/ground_pelvis/pelvis_tilt/speed	/jointset/ground_pelvis/pelvis_tx/speed	/jointset/ground_pelvis/pelvis_ty/speed	/jointset/hip_l/hip_flexion_l/speed	/jointset/hip_l/hip_adduction_l/speed	/jointset/hip_l/hip_rotation_l/speed	/jointset/back/lumbar_extension/speed	/jointset/patellofemoral_l/patellar_flexion_l/speed	/jointset/knee_l/knee_flexion_l/speed	/jointset/knee_l/knee_adduction_l/speed	/jointset/knee_l/knee_rotation_l/speed	/jointset/ankle_l/ankle_angle_l/speed	/jointset/subtalar_l/subtalar_angle_l/speed	/forceset/tau_hip_flexion_l	/forceset/tau_hip_adduction_l	/forceset/tau_hip_rotation_l	/forceset/tau_knee_flexion_l	/forceset/tau_ankle_angle_l	/forceset/tau_subtalar_angle_l	/forceset/tau_lumbar_extension	lambda_cid13_p0	lambda_cid13_p1	lambda_cid13_p2	lambda_cid13_p3	lambda_cid13_p4	lambda_cid13_p5	lambda_cid14_p0	/jointset/ground_pelvis/pelvis_tilt/accel	/jointset/ground_pelvis/pelvis_tx/accel	/jointset/ground_pelvis/pelvis_ty/accel	/jointset/hip_l/hip_flexion_l/accel	/jointset/hip_l/hip_adduction_l/accel	/jointset/hip_l/hip_rotation_l/accel	/jointset/back/lumbar_extension/accel	/jointset/patellofemoral_l/patellar_flexion_l/accel	/jointset/knee_l/knee_flexion_l/accel	/jointset/knee_l/knee_adduction_l/accel	/jointset/knee_l/knee_rotation_l/accel	/jointset/ankle_l/ankle_angle_l/accel	/jointset/subtalar_l/subtalar_angle_l/accel	gamma_cid13_p0	gamma_cid13_p1	gamma_cid13_p2	gamma_cid13_p3	gamma_cid13_p4	gamma_cid13_p5	gamma_cid14_p0
1.5	0.08442529487557993	0.02364637586756715	0.9020494897261678	0.3821733049635785	-0.3104534958481582	-0.2126044632450864	-0.7562300188362346	0.5292075457545307	0.5292075457544045	-0.1268202655795441	-0.174528376735253	0.1051199834017195	0.02109619003421526	0.116415120036835	0.191423235278814	0.2004914591235703	-1.206653353684421	0.09692049890508365	-0.450278402324428	0.853233135010274	-1.345775766706439	-1.34577576670638	-0.1089992674332756	-1.565894215916253e-05	-0.3312216465639452	-0.007176936001501473	-0.1313808694453921	0.02493580255348891	-0.004227048345080923	-0.1812888717152853	0.04899327898135974	0.03487074004480573	0.2360708147704347	-27.60359504376249	-13.49566323105841	5.33472432251025	-1.640080833412269	-681.7856839110951	-78.26313570277719	-22.56163106987623	-0.2115566793437259	0.3231156309361635	-0.3445920507334095	-0.1628289905739333	0.2508425616319019	-0.2234276998444902	1.256230670044693	-0.4264992336429518	-0.4264992336429534	-0.1516441083210396	0.01364574651881873	-0.0208231035020306	0.2570349761512757	3.689495646860619e-08	5.002938945258014e-07	-2.095243433016825e-07	6.537820870939773e-08	4.073821786540329e-08	2.459406050656568e-07	7.45344349819397e-08
1.51	0.08557874769635317	0.02557654773649213	0.9040368207832138	0.3700999381199095	-0.3094721589495738	-0.2171184131613527	-0.7476360147022556	0.5157301001210425	0.5157301001210746	-0.127918293322953	-0.1745285844706306	0.1018070673400226	0.0210369064116189	0.1142648181688939	0.1945876474179188	0.1969410750143355	-1.207869666510938	0.09934032125874542	-0.4524612016344045	0.8654503065865599	-1.349533950205314	-1.349533950205251	-0.1105941932761469	-2.568354359747017e-05	-0.3313088640281197	-0.004671413536765302	-0.1261178105498036	0.02377719373281777	-0.004320625664844705	-0.1791079440946114	0.05024878379268355	0.03413531805629554	0.2307744022492721	-27.11334714609063	-13.2785366995207	5.318873378570586	-1.665954598883582	-679.6778201884601	-78.25995395195858	-22.7826082872091	-0.2183598132753284	0.3095917276996598	-0.3652975336229961	-0.07847927368653335	0.2365339413763905	-0.2080779060552285	1.18685262160915	-0.3235824541848085	-0.3235824541842504	-0.1615333709359845	-0.008346448719623631	0.005247556767518661	0.2485126109676336	4.403516796272879e-08	5.17317881921648e-07	-2.320046075037803e-07	5.980087460246507e-08	6.548967573186042e-08	2.630375344163447e-07	7.818788944255028e-08
1.52	0.08671037892389701	0.02753766127126857	0.9059876408106465	0.3580189187789766	-0.3084668274536227	-0.2216526654426163	-0.7389233604084759	0.5022204517433337	0.5022204517435184	-0.1290318936345273	-0.1745288964290648	0.09849486282861242	0.02100291835953655	0.1120508013907098	0.1976115684491051	0.1931892532009259	-1.208183853137294	0.1017194183781305	-0.4543388753236197	0.8769631669703895	-1.352216315551189	-1.352216315551123	-0.1121137810656506	-3.650355481489576e-05	-0.3310793365065869	-0.00211782189871546	-0.1208547516542181	0.02261858491214295	-0.004414202984641775	-0.1769270164739361	0.05150428860400622	0.03339989606778125	0.2254779897281087	-26.62722561870857	-13.06132078381581	5.303731753734606	-1.704338340741386	-677.6465755751148	-78.2825659606866	-22.98193133211703	-0.2242996613923119	0.2950174093524636	-0.3848795915683561	0.01759624945815625	0.2426975147765696	-0.1624025756922114	1.115368431553446	-0.2113356030429168	-0.2113356030429167	-0.1365764976475286	0.01348666456299375	0.04252589363943651	0.2666488108140116	4.965580871798142e-08	5.363719604758606e-07	-2.49848135495586e-07	5.571381703134939e-08	8.746392117811967e-08	2.787183895131028e-07	8.147102175569598e-08
1.53	0.08781963030719364	0.02952827680420232	0.907899986570192	0.345939138021334	-0.3074379535657812	-0.2262041606254844	-0.7300993063017075	0.4886892825051097	0.4886892825052065	-0.130160396836405	-0.1745293155223156	0.09518648403917221	0.02099464068720447	0.10979040417404	0.2004842370537677	0.1892495947408204	-1.207618591933319	0.1040452945027756	-0.4559045078111644	0.8877165696159183	-1.353832797157581	-1.353832797157594	-0.1135761352187536	-4.548510432228517e-05	-0.330543813643673	0.0004668960307162801	-0.1154560725103785	0.02131156595444508	-0.004533740570724159	-0.1749149223689572	0.05289070487899206	0.03262734307912368	0.2200722945257205	-26.10625959707825	-12.83185163769974	5.284090995618678	-1.723479223608652	-675.6780809865993	-78.31772101312741	-23.15967935630684	-0.228270453772938	0.2793067974057881	-0.4030312340009389	0.09904749298524761	0.225984970647882	-0.14521855186925	1.035663465978796	-0.1091113806027662	-0.1091113806146121	-0.1493811123096599	-0.007872566755218746	0.06697124583597362	0.2550162701251632	5.366190556318475e-08	5.575830108858368e-07	-2.627651312639562e-07	5.321017827953922e-08	1.064873784279187e-07	2.928946657150606e-07	8.436068678716027e-08
1.54	0.08890600557793088	0.03154680206545923	0.9097720312929826	0.3338696211631552	-0.3063861304548247	-0.2307696271265454	-0.7211716507114982	0.4751474870625899	0.4751474870625959	-0.1313031868274489	-0.1745297808314674	0.09188504163100486	0.02101233679139023	0.1074755788786233	0.2031935141137365	0.1851290458499453	-1.206131073244623	0.1063092630009972	-0.4571331389620546	0.8976834636584941	-1.354341556410591	-1.354341556410682	-0.1149711388985759	-4.574673573425193e-05	-0.3296920602520151	0.00307693340484424	-0.1100573933665413	0.02000454699674498	-0.004653278156819292	-0.1729028282639783	0.05427712115397716	0.03185479009046356	0.2146665993233314	-25.5878172944913	-12.60235697638772	5.264922221332776	-1.759878544981479	-673.7638880616529	-78.37626359805047	-23.31580000000922	-0.2351852771416888	0.2623391004136988	-0.4210576777222752	0.2020477464021987	0.2303159894918945	-0.09500230836132444	0.9580667109628467	0.01020886763349867	0.01020886763349873	-0.1231064029913928	0.01523064818208112	0.1057719993882177	0.2717126997532574	5.759556366942162e-08	5.745620212766003e-07	-2.75298808912542e-07	5.016134281895514e-08	1.262507978085764e-07	3.057661467946672e-07	8.68069678776257e-08
1.55	0.08996903356570314	0.03359154704621976	0.9116020154058103	0.3218195058947034	-0.3053120055462	-0.2353456970895069	-0.7121484833826235	0.4616060756160751	0.4616060756160099	-0.1324596269891079	-0.1745301959201325	0.08859362191579401	0.02105620561699706	0.1051219807313247	0.2057221882367123	0.1808407016749314	-1.203729967092343	0.1085029284100279	-0.4580234173671587	0.9068031733834861	-1.353748391305035	-1.353748391305042	-0.1163032082190047	-3.703618186181797e-05	-0.3285412963582319	0.005697995299208005	-0.1045676703863413	0.01864090166928279	-0.004794799490321767	-0.1709757271630764	0.05563287115427696	0.03101823687864665	0.2091729685151427	-25.09017495453297	-12.33975382376011	5.23856557876567	-1.712674900048709	-671.9359803101179	-78.40362246730621	-23.45039639985478	-0.2366538206705071	0.2431463862944454	-0.4367523794682555	0.2834442598977591	0.2119334907919696	-0.07734398970593202	0.8668987933578211	0.1127036066116461	0.1127036066242818	-0.1361274147684476	-0.00633545076824221	0.1273319070684751	0.2574180851001848	6.14457597503276e-08	5.86664985558271e-07	-2.873908374231153e-07	4.648434593304465e-08	1.468667822530496e-07	3.171342769724342e-07	8.874239355780985e-08
1.56	0.09100828422457399	0.03566058173182103	0.9133883101584725	0.3097982621298263	-0.304216335648648	-0.2399289305131436	-0.7030385238184805	0.4480763624755325	0.4480763624754007	-0.1336289618876099	-0.1745305292452149	0.08531523050406008	0.021126308091712	0.1027201130981616	0.2080514550818859	0.1763911738168244	-1.200356772529789	0.1106182607863908	-0.4585658310971021	0.9150419107120944	-1.352001895215678	-1.352001895215601	-0.117550086267426	-2.939401831156341e-05	-0.3270863995566449	0.008323663226461754	-0.09907794740614263	0.01727725634182184	-0.00493632082380129	-0.1690486260621771	0.05698862115457688	0.03018168366683087	0.2036793377069528	-24.5935436938377	-12.07730122546325	5.21260761443329	-1.687394679982216	-670.1411246888674	-78.4517917984781	-23.56376444420815	-0.2448391743145905	0.2224576448532181	-0.4532944143408995	0.3964654284569181	0.2146493829583496	-0.02542937332919221	0.7818722316861049	0.2408750643937985	0.2408750643937994	-0.1060681485898579	0.01501697011764867	0.1665985809489652	0.272633906331256	6.50615557123246e-08	6.03261901851145e-07	-2.984639695530352e-07	4.332686246193919e-08	1.685599212418385e-07	3.293285891351685e-07	9.09327237240759e-08
1.57	0.09202335356989587	0.03775187950060322	0.9151293614602526	0.2978154673665739	-0.3030999421000683	-0.2445158728441943	-0.6938508100609579	0.4345697843806715	0.4345697843806276	-0.1348103964369453	-0.1745308015999578	0.08205284738286615	0.02122263205557962	0.100285944927675	0.2101711036174984	0.1717958413615734	-1.196034674844779	0.1126439149545799	-0.4587612534243682	0.9223393833955464	-1.34911473718516	-1.34911473718503	-0.1187227359165056	-2.492907816420403e-05	-0.3253393682215024	0.01093864096062053	-0.0934166714162368	0.01575615994329783	-0.005117274644407708	-0.1674318964521224	0.05861941907054004	0.02927840256133994	0.1980708961888059	-24.02282292809191	-11.79454953949588	5.178510754820232	-1.662585137491438	-668.4958021665931	-78.50660359558439	-23.65635219182666	-0.2438799552684598	0.2011770742858031	-0.4660984648152432	0.4752070815647137	0.1939980215501725	-0.007305465024218993	0.679466177181543	0.342465180853103	0.3424651808608936	-0.1206676554064646	-0.0068834915517128	0.1864003803721983	0.25549219913261	6.838435152568539e-08	6.254762581580228e-07	-3.082634812071383e-07	4.081877075934e-08	1.915995034110222e-07	3.425556287791117e-07	9.344168449794428e-08
